<svg width="60" height="76" viewBox="0 0 60 76" fill="none" xmlns="http://www.w3.org/2000/svg">
<path d="M44.3043 55.5518C44.2458 55.4339 44.1646 55.3287 44.0654 55.2422C43.9662 55.1558 43.8509 55.0897 43.7261 55.0479C43.6013 55.0061 43.4695 54.9893 43.3382 54.9986C43.2069 55.0078 43.0788 55.0428 42.9611 55.1017C42.8433 55.1605 42.7384 55.242 42.6523 55.3415C42.5661 55.441 42.5004 55.5565 42.459 55.6815C42.4176 55.8064 42.4012 55.9382 42.4109 56.0695C42.4205 56.2007 42.456 56.3288 42.5152 56.4463L43.5152 58.4463C43.6343 58.6827 43.8423 58.8622 44.0936 58.9455C44.3448 59.0288 44.6188 59.0091 44.8556 58.8908C45.0923 58.7724 45.2725 58.565 45.3566 58.314C45.4407 58.063 45.4219 57.7889 45.3043 57.5518L44.3043 55.5518Z" fill="black"/>
<path d="M42.653 51.9196L39.32 44.5861C39.2103 44.3447 39.0092 44.1568 38.761 44.0637C38.5128 43.9706 38.2377 43.9799 37.9963 44.0896C37.7549 44.1992 37.567 44.4003 37.4739 44.6486C37.3807 44.8968 37.39 45.1719 37.4997 45.4133L40.8327 52.7468C40.887 52.8663 40.9643 52.974 41.0603 53.0636C41.1562 53.1532 41.2688 53.2231 41.3917 53.2692C41.5147 53.3153 41.6455 53.3368 41.7767 53.3324C41.9079 53.3279 42.0369 53.2977 42.1564 53.2434C42.276 53.1891 42.3836 53.1117 42.4733 53.0158C42.5629 52.9199 42.6328 52.8073 42.6789 52.6844C42.725 52.5614 42.7464 52.4306 42.742 52.2994C42.7376 52.1682 42.7073 52.0392 42.653 51.9196Z" fill="black"/>
<path d="M49.3431 56.4829L37.4096 30.7793V20.8735C38.3522 20.6301 39.1738 20.0512 39.7202 19.2454C40.2666 18.4396 40.5004 17.4621 40.3777 16.4963C40.255 15.5304 39.7843 14.6425 39.0538 13.9988C38.3233 13.3552 37.3832 13.0001 36.4096 13H36.3071L37.3715 9.2749C37.414 9.12603 37.4214 8.96932 37.3931 8.81711C37.3648 8.66489 37.3015 8.52133 37.2082 8.39774C37.115 8.27415 36.9943 8.17389 36.8557 8.10487C36.7171 8.03585 36.5644 7.99995 36.4096 8H24.4096C24.2547 7.99995 24.102 8.03585 23.9634 8.10487C23.8248 8.17389 23.7041 8.27415 23.6109 8.39774C23.5176 8.52133 23.4544 8.66489 23.426 8.81711C23.3977 8.96932 23.4051 9.12603 23.4476 9.2749L24.512 13H24.4096C23.436 13.0001 22.4958 13.3552 21.7653 13.9988C21.0348 14.6425 20.5641 15.5304 20.4414 16.4963C20.3187 17.4621 20.5525 18.4396 21.0989 19.2454C21.6453 20.0512 22.4669 20.6301 23.4096 20.8735V30.7793L11.476 56.4814C11.076 57.3252 10.9235 58.2651 11.036 59.1921C11.1485 60.1191 11.5215 60.9951 12.1117 61.7188C15.7504 66.063 21.3939 68 30.4096 68C39.4252 68 45.0687 66.063 48.7074 61.7188C49.2976 60.9954 49.6705 60.1196 49.7831 59.1928C49.8956 58.2661 49.743 57.3265 49.3431 56.4829ZM35.0834 10L33.6556 15H27.1635L25.7357 10H35.0834ZM25.3168 31.4209C25.3777 31.2889 25.4093 31.1453 25.4096 31V20C25.4096 19.8687 25.3837 19.7386 25.3335 19.6173C25.2833 19.4959 25.2096 19.3857 25.1167 19.2928C25.0239 19.2 24.9136 19.1263 24.7923 19.0761C24.6709 19.0258 24.5409 19 24.4096 19C23.8791 19 23.3704 18.7893 22.9953 18.4142C22.6203 18.0391 22.4096 17.5304 22.4096 17C22.4096 16.4696 22.6203 15.9609 22.9953 15.5858C23.3704 15.2107 23.8791 15 24.4096 15H25.0834L25.4476 16.2749C25.5075 16.4838 25.6338 16.6675 25.8073 16.7983C25.9808 16.9292 26.1922 16.9999 26.4096 17H34.4096C34.6269 16.9999 34.8383 16.9292 35.0118 16.7983C35.1853 16.6675 35.3116 16.4838 35.3715 16.2749L35.7357 15H36.4096C36.94 15 37.4487 15.2107 37.8238 15.5858C38.1988 15.9609 38.4096 16.4696 38.4096 17C38.4096 17.5304 38.1988 18.0391 37.8238 18.4142C37.4487 18.7893 36.94 19 36.4096 19C36.2782 19 36.1482 19.0258 36.0268 19.0761C35.9055 19.1263 35.7952 19.2 35.7024 19.2928C35.6095 19.3857 35.5358 19.4959 35.4856 19.6173C35.4354 19.7386 35.4095 19.8687 35.4096 20V31C35.4093 31.1454 35.441 31.2891 35.5023 31.4209L38.9827 38.9175C33.5431 38.7036 31.6487 39.8848 29.8197 41.0327C28.0197 42.1625 26.1535 43.3249 19.9047 43.0777L25.3168 31.4209ZM47.1742 60.4346C43.9496 64.2837 38.7797 66 30.4096 66C22.0394 66 16.8696 64.2837 13.6449 60.4346C13.2978 60.0026 13.0803 59.481 13.0176 58.9304C12.9548 58.3798 13.0494 57.8227 13.2904 57.3237L18.9976 45.0314C19.8896 45.0804 20.7286 45.1104 21.4818 45.1104C27.0843 45.1104 29.0863 43.854 30.8832 42.7266C32.7099 41.5795 34.3105 40.5887 39.9362 40.9714L47.5287 57.3252C47.7696 57.824 47.8642 58.3808 47.8015 58.9312C47.7387 59.4815 47.5212 60.0028 47.1742 60.4346Z" fill="black"/>
</svg>
