<svg width="60" height="76" viewBox="0 0 60 76" fill="none" xmlns="http://www.w3.org/2000/svg">
<g clip-path="url(#clip0_165_664)">
<path d="M23.5879 38.174L29.8259 44.412L40.5139 32H30.7579L23.5879 38.174Z" fill="black"/>
<path d="M19.5498 39.2763C18.0128 40.9073 16.603 42.6538 15.333 44.5004C14.9084 45.0755 14.4595 45.68 14 46.293V57.7822C17.4092 53.6301 21.0353 51.9622 24.1162 50.557C25.4998 49.9906 26.8209 49.2824 28.0586 48.4438C28.1726 48.359 28.28 48.2656 28.3798 48.1645C28.6897 47.8302 28.8562 47.3879 28.8438 46.9323C28.8313 46.4766 28.6409 46.044 28.3132 45.7272L21.9541 39.3681C21.6456 39.0474 21.2257 38.8575 20.7812 38.8377C20.3366 38.8178 19.9015 38.9695 19.5656 39.2614L19.5498 39.2763Z" fill="black"/>
<path d="M6.57031 54.6204C5.78616 55.3157 4.86451 55.8383 3.86523 56.1541C1.22852 56.8934 0 60.0794 0 61.9998C7.09135e-05 62.265 0.105463 62.5193 0.293 62.7068L5.293 67.7068C5.38583 67.7997 5.49605 67.8734 5.61737 67.9236C5.73868 67.9739 5.86871 67.9998 6.00003 67.9998C6.13135 67.9998 6.26138 67.9739 6.38269 67.9236C6.50401 67.8734 6.61423 67.7997 6.70706 67.7068L9.11429 65.2991C9.58333 64.8257 9.97131 64.2784 10.2627 63.679C10.7872 62.6102 11.3671 61.5695 12 60.561V48.8789C10.3837 50.967 8.56495 52.8901 6.57031 54.6204Z" fill="black"/>
<path d="M59.7066 8.29343C59.5284 8.11472 59.2891 8.01012 59.0369 8.0007C58.7847 7.99127 58.5383 8.07771 58.3472 8.24262L33.0801 30.0004H42.2358L59.7574 9.65277C59.9221 9.46162 60.0083 9.21525 59.9989 8.96312C59.9895 8.71099 59.8851 8.47175 59.7066 8.29343Z" fill="black"/>
</g>
<defs>
<clipPath id="clip0_165_664">
<rect width="60" height="75" fill="white" transform="translate(0 0.5)"/>
</clipPath>
</defs>
</svg>
